<?xml version="1.0" encoding="utf-8"?>
<!-- Generator: Adobe Illustrator 15.0.0, SVG Export Plug-In  -->
<!DOCTYPE svg PUBLIC "-//W3C//DTD SVG 1.1//EN" "http://www.w3.org/Graphics/SVG/1.1/DTD/svg11.dtd" [
	<!ENTITY ns_flows "http://ns.adobe.com/Flows/1.0/">
]>
<svg version="1.1"
	 xmlns="http://www.w3.org/2000/svg" xmlns:xlink="http://www.w3.org/1999/xlink" xmlns:a="http://ns.adobe.com/AdobeSVGViewerExtensions/3.0/"
	 x="0px" y="0px" width="300px" height="100px" viewBox="-7.314 -10.575 300 100"
	 overflow="visible" enable-background="new -7.314 -10.575 300 100" xml:space="preserve">
<defs>
</defs>
<g>
	<path d="M43.518,58.196c-0.053,1.009-0.318,1.83-0.795,2.466c-0.478,0.637-1.062,1.021-1.75,1.154
		c-0.69,0.132-1.379,0.012-2.068-0.358c-0.69-0.372-1.273-1.007-1.75-1.909c-0.318-2.492-0.77-4.945-1.353-7.359
		c-0.584-2.412-1.273-4.812-2.069-7.199L12.65,45.148c-0.107,0-0.227-0.012-0.358-0.039c-0.133-0.026-0.252-0.04-0.358-0.04
		c-1.326,4.509-2.52,9.177-3.58,14.002c-0.425,1.114-1.034,1.856-1.83,2.228c-0.796,0.371-1.552,0.45-2.268,0.238
		s-1.3-0.689-1.75-1.432c-0.451-0.742-0.57-1.697-0.358-2.863c1.75-7.69,3.859-15.209,6.325-22.555
		c2.466-7.346,5.555-14.52,9.268-21.521c0.318-1.007,1.061-1.644,2.228-1.909c0.583-0.211,1.14-0.251,1.67-0.12
		c0.53,0.133,0.981,0.385,1.353,0.756c0.052,0,0.08,0.014,0.08,0.04c0,0.027,0.026,0.04,0.08,0.04
		c2.757,2.653,5.064,5.648,6.921,8.99c1.856,3.341,3.553,6.736,5.092,10.183c0.583,1.221,1.126,2.44,1.631,3.66
		c0.503,1.221,0.995,2.44,1.472,3.66l4.216-0.08c1.007,0.318,1.75,0.796,2.228,1.432c0.478,0.637,0.703,1.287,0.676,1.949
		c-0.027,0.664-0.306,1.301-0.835,1.91c-0.531,0.609-1.3,1.021-2.307,1.232h-1.67c0.688,2.176,1.285,4.363,1.79,6.563
		C42.868,53.675,43.252,55.916,43.518,58.196z M21.56,19.929c-1.485,3.023-2.852,6.1-4.097,9.229c-1.247,3.13-2.4,6.285-3.46,9.467
		l17.343-0.159c-0.69-1.591-1.392-3.155-2.108-4.694c-0.716-1.538-1.446-3.075-2.188-4.614c-0.849-1.538-1.698-3.103-2.546-4.694
		C23.655,22.872,22.674,21.36,21.56,19.929z"/>
	<path d="M70.488,52.229c0.901-0.742,1.79-1.087,2.666-1.034c0.875,0.053,1.577,0.346,2.108,0.875
		c0.53,0.531,0.822,1.233,0.875,2.108c0.052,0.875-0.292,1.765-1.034,2.665c-1.75,1.91-3.807,3.262-6.166,4.058
		c-2.36,0.796-4.694,1.021-7.001,0.677c-2.307-0.346-4.443-1.26-6.404-2.745c-1.963-1.484-3.421-3.501-4.376-6.046
		c-0.584-1.433-1.008-2.944-1.273-4.535c-0.266-1.592-0.345-3.155-0.239-4.694c0.159-2.546,0.756-5.104,1.791-7.677
		c1.034-2.572,2.438-4.813,4.216-6.723c1.776-1.909,3.871-3.302,6.285-4.177c2.413-0.875,5.052-0.861,7.916,0.04
		c1.432,0.478,2.731,1.062,3.898,1.75c1.166,0.69,2.28,1.565,3.341,2.625c0.583,0.849,0.875,1.67,0.875,2.466
		c0,0.795-0.226,1.446-0.676,1.949c-0.451,0.504-1.062,0.835-1.83,0.994c-0.77,0.159-1.631,0-2.586-0.477
		c-1.75-1.75-3.448-2.797-5.091-3.143c-1.645-0.344-3.17-0.199-4.575,0.438c-1.406,0.636-2.653,1.658-3.739,3.063
		c-1.088,1.406-1.923,2.997-2.506,4.773c-0.584,1.778-0.875,3.633-0.875,5.569c0,1.938,0.371,3.727,1.114,5.371
		c0.637,1.484,1.498,2.625,2.586,3.42c1.086,0.796,2.24,1.261,3.46,1.393c1.22,0.133,2.479-0.053,3.779-0.557
		C68.327,54.152,69.48,53.343,70.488,52.229z"/>
	<path d="M102.869,52.229c0.901-0.742,1.79-1.087,2.666-1.034c0.875,0.053,1.577,0.346,2.108,0.875
		c0.53,0.531,0.822,1.233,0.875,2.108c0.052,0.875-0.292,1.765-1.034,2.665c-1.75,1.91-3.807,3.262-6.166,4.058
		c-2.36,0.796-4.694,1.021-7.001,0.677c-2.307-0.346-4.443-1.26-6.404-2.745c-1.963-1.484-3.421-3.501-4.376-6.046
		c-0.584-1.433-1.008-2.944-1.273-4.535c-0.266-1.592-0.345-3.155-0.239-4.694c0.159-2.546,0.756-5.104,1.791-7.677
		c1.034-2.572,2.438-4.813,4.216-6.723c1.776-1.909,3.871-3.302,6.285-4.177c2.413-0.875,5.052-0.861,7.916,0.04
		c1.432,0.478,2.731,1.062,3.898,1.75c1.166,0.69,2.28,1.565,3.341,2.625c0.583,0.849,0.875,1.67,0.875,2.466
		c0,0.795-0.226,1.446-0.676,1.949c-0.451,0.504-1.062,0.835-1.83,0.994c-0.77,0.159-1.631,0-2.586-0.477
		c-1.75-1.75-3.448-2.797-5.091-3.143c-1.645-0.344-3.17-0.199-4.575,0.438c-1.406,0.636-2.653,1.658-3.739,3.063
		c-1.088,1.406-1.923,2.997-2.506,4.773c-0.584,1.778-0.875,3.633-0.875,5.569c0,1.938,0.371,3.727,1.114,5.371
		c0.637,1.484,1.498,2.625,2.586,3.42c1.086,0.796,2.24,1.261,3.46,1.393c1.22,0.133,2.479-0.053,3.779-0.557
		C100.707,54.152,101.861,53.343,102.869,52.229z"/>
	<path d="M114.166,41.33c0.583-1.697,1.299-3.354,2.148-4.972c0.848-1.618,1.856-3.089,3.023-4.416
		c1.166-1.325,2.506-2.466,4.018-3.421c1.512-0.955,3.195-1.643,5.052-2.068c3.075-0.688,5.768-0.45,8.075,0.716
		c2.307,1.167,4.149,2.838,5.529,5.012c1.378,2.176,2.293,4.654,2.745,7.439c0.449,2.785,0.33,5.45-0.357,7.996
		c-0.796,3.13-2.202,6.047-4.217,8.752c-2.016,2.704-4.562,4.666-7.638,5.887c-2.281,0.901-4.469,1.232-6.563,0.994
		c-2.096-0.238-3.978-0.914-5.648-2.028c-1.671-1.114-3.09-2.572-4.256-4.376c-1.167-1.803-1.963-3.845-2.387-6.126
		c-0.266-1.433-0.358-2.837-0.278-4.216c0.079-1.379,0.251-2.758,0.517-4.138L114.166,41.33z M120.372,43.16
		c-0.212,1.113-0.358,2.135-0.438,3.062c-0.08,0.929-0.04,1.977,0.12,3.143c0.159,1.432,0.609,2.719,1.352,3.859
		c0.742,1.141,1.644,2.016,2.705,2.625c1.061,0.61,2.24,0.902,3.541,0.875c1.299-0.026,2.612-0.438,3.938-1.233
		c1.75-1.06,3.143-2.438,4.177-4.137c1.034-1.696,1.816-3.526,2.347-5.489c0.424-1.592,0.517-3.289,0.278-5.092
		s-0.783-3.394-1.631-4.774c-0.849-1.378-1.989-2.373-3.421-2.983c-1.432-0.609-3.13-0.517-5.092,0.279
		c-2.122,0.902-3.793,2.255-5.012,4.057C122.015,39.155,121.061,41.091,120.372,43.16z"/>
	<path d="M183.938,55.332c0.582,0.744,0.875,1.565,0.875,2.467c0,0.902-0.293,1.631-0.875,2.188
		c-0.584,0.557-1.301,0.836-2.148,0.836c-1.166,0-2.176-0.544-3.023-1.631c-0.849-1.087-1.564-2.32-2.147-3.7
		c-1.38,1.485-2.997,2.745-4.853,3.779c-1.857,1.034-3.768,1.552-5.729,1.552c-1.432,0-2.812-0.252-4.137-0.756
		c-1.327-0.504-2.561-1.193-3.7-2.068c-1.142-0.875-2.147-1.896-3.022-3.063c-0.875-1.166-1.525-2.387-1.949-3.659
		c-0.426-1.379-0.717-2.904-0.875-4.575c-0.16-1.671-0.239-3.407-0.239-5.211c0-2.174,0.052-4.296,0.159-6.365
		c0.105-2.068,0.159-3.898,0.159-5.489c0.265-1.061,0.688-1.856,1.272-2.387c0.584-0.53,1.246-0.796,1.989-0.796
		c0.688,0,1.339,0.239,1.949,0.716c0.608,0.477,1.046,1.221,1.312,2.228c0,2.494-0.04,4.893-0.119,7.2s-0.12,4.761-0.12,7.359
		c0,2.971,0.637,5.41,1.91,7.32c1.273,1.908,2.996,2.863,5.172,2.863c0.795,0,1.59-0.158,2.387-0.477
		c0.795-0.318,1.537-0.742,2.227-1.273c0.689-0.529,1.326-1.141,1.91-1.83c0.582-0.688,1.113-1.379,1.591-2.068
		c0.105-0.105,0.239-0.199,0.397-0.278c0.16-0.079,0.291-0.171,0.398-0.278c-0.318-2.652-0.478-5.33-0.478-8.036
		c0-1.538,0.013-3.089,0.04-4.654c0.025-1.563,0.158-2.996,0.397-4.296c0.239-1.299,0.636-2.359,1.193-3.182
		c0.557-0.822,1.339-1.233,2.347-1.233c0.796,0,1.512,0.306,2.148,0.915c0.637,0.61,0.955,1.499,0.955,2.665
		c0,1.221-0.094,2.705-0.279,4.456c-0.186,1.75-0.277,3.58-0.277,5.489c0,1.486,0.051,2.971,0.158,4.455
		c0.105,1.486,0.279,2.904,0.518,4.257s0.557,2.586,0.955,3.7C182.784,53.582,183.301,54.537,183.938,55.332z"/>
	<path d="M219.221,61.179c-0.664,0.609-1.393,0.915-2.189,0.915c-0.742,0-1.432-0.278-2.068-0.835s-1.033-1.419-1.193-2.586
		c0-2.439-0.014-4.865-0.039-7.279c-0.027-2.413-0.039-4.84-0.039-7.279c0-1.751,0.012-3.501,0.039-5.251
		c0.025-1.75-0.094-3.5-0.357-5.251c-0.426-0.795-0.889-1.285-1.393-1.472c-0.506-0.185-1.102-0.278-1.791-0.278
		c-1.803,0-3.58,0.438-5.33,1.312s-3.129,2.082-4.137,3.62c-0.584,0.902-1.049,1.658-1.393,2.267c-0.346,0.61-0.57,1.5-0.676,2.666
		c0,2.704,0,5.409,0,8.114s0.025,5.41,0.08,8.114c-0.055,1.221-0.412,2.137-1.074,2.746c-0.664,0.608-1.393,0.914-2.188,0.914
		c-0.744,0-1.434-0.278-2.068-0.835c-0.637-0.558-1.035-1.419-1.193-2.586c0-2.546,0-5.013,0-7.399s-0.014-4.746-0.041-7.08
		s-0.039-4.707-0.039-7.121c0-2.413,0-4.893,0-7.438c0.264-1.061,0.688-1.856,1.273-2.387c0.582-0.53,1.244-0.795,1.988-0.795
		c0.688,0,1.338,0.238,1.949,0.716c0.609,0.478,1.047,1.221,1.312,2.228v0.637c1.537-1.325,3.273-2.373,5.211-3.143
		c1.936-0.769,3.885-1.154,5.848-1.154c1.961,0,3.805,0.451,5.529,1.353c1.723,0.902,3.115,2.361,4.176,4.375
		c0.371,0.69,0.623,1.552,0.756,2.586s0.213,2.122,0.24,3.262c0.025,1.141,0.012,2.307-0.041,3.5
		c-0.053,1.194-0.078,2.321-0.078,3.381v9.388v5.331C220.241,59.656,219.883,60.57,219.221,61.179z"/>
	<path d="M228.051,31.624c-0.559-0.637-0.836-1.325-0.836-2.068c0-0.742,0.305-1.472,0.914-2.188s1.525-1.074,2.746-1.074h4.455
		v-12.57c0.264-1.061,0.688-1.856,1.271-2.387c0.584-0.53,1.246-0.796,1.99-0.796c0.688,0,1.338,0.239,1.949,0.716
		c0.609,0.477,1.047,1.221,1.312,2.228v12.809h7.637c1.008,0.266,1.75,0.704,2.229,1.313c0.477,0.61,0.715,1.26,0.715,1.949
		c0,0.743-0.266,1.406-0.795,1.989c-0.531,0.584-1.326,1.008-2.387,1.273h-7.398c-0.055,4.085-0.055,8.288,0,12.61
		c0.053,4.323,0.08,8.525,0.08,12.609c0,1.221-0.359,2.136-1.074,2.745c-0.717,0.608-1.447,0.915-2.189,0.915
		s-1.432-0.279-2.068-0.836c-0.635-0.557-1.033-1.418-1.193-2.586c0-4.137-0.014-8.379-0.039-12.729
		c-0.027-4.349-0.039-8.592-0.039-12.729h-4.695C229.469,32.658,228.608,32.26,228.051,31.624z"/>
	<path d="M256.731,55.013c-0.477-0.954-0.637-1.816-0.477-2.586c0.158-0.768,0.49-1.378,0.994-1.829
		c0.504-0.45,1.154-0.677,1.949-0.677s1.617,0.293,2.467,0.875c1.219,1.539,2.664,2.732,4.336,3.58
		c1.67,0.85,3.461,1.354,5.369,1.512l1.672-0.477c0.424-0.318,0.715-0.529,0.875-0.637c0.158-0.105,0.277-0.199,0.357-0.278
		s0.186-0.199,0.318-0.358c0.131-0.158,0.357-0.449,0.676-0.875c0.105-0.211,0.186-0.424,0.238-0.637
		c0.053-0.211,0.133-0.449,0.24-0.716c0-0.265,0.012-0.503,0.039-0.716c0.025-0.211,0.039-0.45,0.039-0.717l-0.477-1.432
		c-0.16-0.211-0.332-0.424-0.518-0.637c-0.186-0.211-0.357-0.424-0.518-0.636c-1.326-0.849-2.652-1.458-3.977-1.83
		c-1.326-0.37-2.613-0.756-3.859-1.153c-1.246-0.398-2.467-0.915-3.66-1.552c-1.193-0.636-2.32-1.671-3.381-3.103
		c-1.008-1.273-1.551-2.745-1.631-4.416s0.186-3.274,0.797-4.813c0.607-1.538,1.51-2.904,2.703-4.098s2.559-1.949,4.098-2.267
		c2.229-0.53,4.496-0.583,6.803-0.159c2.307,0.425,4.467,1.167,6.484,2.228c0.955,0.69,1.512,1.472,1.67,2.347
		c0.16,0.875,0.041,1.631-0.357,2.267c-0.398,0.637-1.008,1.088-1.83,1.353c-0.822,0.266-1.764,0.133-2.824-0.398
		c-1.273-0.688-2.613-1.14-4.018-1.352c-1.406-0.211-2.824-0.211-4.256,0c-0.16,0.107-0.332,0.186-0.518,0.238
		c-0.188,0.054-0.357,0.133-0.518,0.239c-0.584,0.637-1.008,1.261-1.273,1.87c-0.266,0.61-0.371,1.366-0.318,2.268
		c0.053,0.212,0.186,0.531,0.398,0.955c0.16,0.212,0.318,0.398,0.479,0.557c0.158,0.159,0.316,0.345,0.477,0.557
		c1.273,0.69,2.664,1.233,4.176,1.631c1.512,0.398,2.984,0.849,4.416,1.352c1.432,0.506,2.758,1.168,3.979,1.99
		c1.219,0.822,2.174,2.027,2.863,3.619c1.273,3.023,1.473,5.808,0.598,8.354s-2.639,4.693-5.291,6.444
		c-0.689,0.424-1.459,0.782-2.307,1.074c-0.85,0.29-1.645,0.438-2.387,0.438c-2.865,0-5.676-0.65-8.434-1.949
		C260.657,59.164,258.428,57.348,256.731,55.013z"/>
</g>
</svg>
