<svg xmlns="http://www.w3.org/2000/svg" width="32.338" height="32.338" viewBox="0 0 32.33794021606445 32.33793640136719"><path d="M27.666 24.73l-5.892-5.012c-.609-.548-1.261-.8-1.787-.776 1.391-1.629 2.232-3.742 2.232-6.052 0-5.151-4.177-9.328-9.328-9.328s-9.328 4.177-9.328 9.328 4.177 9.328 9.328 9.328c2.31 0 4.424-.84 6.053-2.231-.024.526.227 1.178.776 1.787l5.012 5.892c.858.953 2.26 1.034 3.115.179.855-.855.774-2.257-.18-3.116zm-14.776-5.621c-3.434 0-6.219-2.784-6.219-6.219 0-3.434 2.784-6.219 6.219-6.219 3.434 0 6.219 2.784 6.219 6.219 0 3.434-2.784 6.219-6.219 6.219z" fill="#233e0e"/></svg>